<?xml version="1.0" standalone="no"?>
<!DOCTYPE svg PUBLIC "-//W3C//DTD SVG 20010904//EN"
 "http://www.w3.org/TR/2001/REC-SVG-20010904/DTD/svg10.dtd">
<svg version="1.0" xmlns="http://www.w3.org/2000/svg"
 width="500.000000pt" height="500.000000pt" viewBox="0 0 500.000000 500.000000"
 preserveAspectRatio="xMidYMid meet">
<metadata>
Created by potrace 1.14, written by Peter Selinger 2001-2017
</metadata>
<g transform="translate(0.000000,500.000000) scale(0.100000,-0.100000)"
fill="#000000" stroke="none">
<path d="M2172 3172 c-29 -3 -36 -9 -53 -49 -19 -44 -27 -158 -11 -165 12 -5
110 -309 127 -395 14 -75 47 -167 95 -269 11 -23 20 -48 20 -57 0 -28 89 -191
127 -234 21 -23 50 -45 66 -49 15 -3 31 -14 36 -22 9 -15 11 -15 28 1 11 9 25
17 31 17 7 0 12 4 12 8 0 5 29 32 65 60 40 33 65 60 65 72 0 11 7 20 15 20 11
0 15 12 15 44 0 24 -4 46 -9 48 -12 4 -24 48 -14 48 14 0 2 72 -14 89 -11 11
-14 27 -9 58 8 58 24 78 66 82 19 2 37 7 40 11 8 13 79 29 86 19 3 -5 12 -9
21 -9 23 0 101 -66 108 -93 4 -12 19 -49 35 -82 15 -33 31 -71 35 -85 4 -14
25 -45 47 -70 59 -68 62 -72 83 -114 12 -22 34 -45 52 -54 22 -11 36 -27 44
-51 6 -20 18 -46 26 -59 24 -39 53 -172 53 -248 0 -40 6 -103 14 -141 8 -38
13 -82 11 -98 -3 -17 -5 -55 -6 -85 0 -30 -7 -69 -14 -87 -13 -30 -18 -33 -57
-33 -52 0 -117 -28 -161 -69 -17 -17 -39 -31 -47 -31 -9 0 -57 -13 -108 -30
-51 -16 -106 -30 -122 -30 -16 0 -32 -4 -35 -10 -13 -20 -119 -11 -200 18 -44
16 -89 33 -100 39 -29 15 -106 15 -150 0 -28 -10 -52 -11 -94 -3 -31 5 -58 13
-61 17 -3 3 -20 10 -39 14 -18 4 -48 15 -65 25 -17 10 -47 18 -66 18 -40 0
-166 40 -205 66 -15 10 -44 24 -65 31 -36 13 -96 64 -130 111 -8 12 -37 50
-63 85 -27 35 -56 75 -65 88 -9 13 -26 35 -38 50 -21 26 -150 217 -169 249 -5
10 -20 31 -32 48 -20 27 -109 216 -142 301 -15 36 -26 47 -58 57 -17 6 -23 3
-23 -8 0 -9 -9 -16 -20 -16 -11 0 -20 -5 -20 -11 0 -5 -5 -7 -11 -3 -6 3 -16
0 -21 -7 -7 -10 -8 -5 -4 16 3 17 3 24 0 18 -8 -19 -34 -16 -34 3 0 13 -3 14
-14 5 -7 -6 -20 -9 -27 -6 -8 2 -25 -4 -38 -14 -21 -16 -25 -28 -26 -82 -1
-37 -9 -77 -18 -96 -31 -60 -18 -192 23 -220 11 -8 20 -20 20 -28 0 -8 6 -18
14 -22 32 -18 43 -204 15 -239 -6 -7 -12 -34 -16 -62 -5 -46 -3 -52 29 -88 21
-23 45 -67 58 -107 17 -51 29 -71 47 -78 14 -5 23 -17 23 -29 0 -11 6 -23 14
-26 8 -3 20 -26 27 -50 13 -42 54 -88 123 -137 15 -11 16 -17 7 -34 -9 -18 -7
-23 17 -32 53 -22 75 -40 88 -70 7 -17 20 -31 28 -31 8 0 20 -8 25 -18 23 -44
122 -133 162 -147 24 -9 50 -21 59 -28 20 -16 78 -48 85 -47 18 3 82 -14 90
-24 6 -6 24 -12 40 -13 17 -1 50 -7 75 -13 25 -6 74 -16 110 -20 36 -5 97 -14
135 -20 39 -5 86 -12 105 -15 67 -10 345 -6 414 5 38 6 92 20 120 32 80 33
286 137 311 158 7 6 38 15 69 20 52 8 186 77 203 103 3 5 5 31 4 57 -1 32 4
51 14 60 8 7 15 27 15 46 0 18 11 54 25 79 20 38 24 58 21 106 -3 53 -1 61 20
78 22 17 23 22 15 72 -12 71 -9 128 7 138 11 7 7 27 -18 102 -26 76 -33 116
-37 204 -9 198 -8 206 19 260 23 44 25 57 18 105 -4 33 -3 64 3 78 7 16 7 29
-3 46 -7 15 -10 38 -6 58 8 43 -23 144 -62 202 -17 24 -33 55 -37 68 -17 56
-59 130 -87 156 -17 15 -44 41 -62 57 -38 37 -122 98 -167 120 -19 10 -42 24
-52 33 -18 16 -53 31 -134 57 -23 8 -84 35 -135 60 -117 59 -349 134 -415 135
-17 0 -44 5 -60 11 -35 14 -127 25 -171 21z"/>
</g>
</svg>
